<svg width="200" height="200" viewBox="0 0 200 200" fill="none" xmlns="http://www.w3.org/2000/svg">
<rect width="200" height="200" rx="40" fill="url(#paint0_linear_39_2)"/>
<path d="M148.75 148.75L125.225 125.225M125.225 125.225C129.249 121.201 132.441 116.424 134.619 111.167C136.797 105.909 137.918 100.274 137.918 94.5833C137.918 88.8926 136.797 83.2575 134.619 77.9999C132.441 72.7424 129.249 67.9652 125.225 63.9412C121.201 59.9173 116.424 56.7253 111.167 54.5475C105.909 52.3697 100.274 51.2489 94.5833 51.2489C88.8926 51.2489 83.2576 52.3697 78 54.5475C72.7424 56.7253 67.9652 59.9173 63.9413 63.9412C55.8145 72.068 51.2489 83.0903 51.2489 94.5833C51.2489 106.076 55.8145 117.099 63.9413 125.225C72.0681 133.352 83.0903 137.918 94.5833 137.918C106.076 137.918 117.099 133.352 125.225 125.225Z" stroke="white" stroke-width="22" stroke-linecap="round" stroke-linejoin="round"/>
<defs>
<linearGradient id="paint0_linear_39_2" x1="116.256" y1="1.94807e-06" x2="83.7436" y2="200" gradientUnits="userSpaceOnUse">
<stop stop-color="#F3942E"/>
<stop offset="1" stop-color="#F025A5"/>
</linearGradient>
</defs>
</svg>
